<svg width="62" height="61" viewBox="0 0 62 61" fill="none" xmlns="http://www.w3.org/2000/svg">
<g clip-path="url(#clip0_31_26)">
<path d="M62 0.655182H0V60.5173H62V0.655182Z" fill="white"/>
<path fill-rule="evenodd" clip-rule="evenodd" d="M5.16669 30.5862C5.16669 16.8108 16.7327 5.64368 31 5.64368C45.2673 5.64368 56.8334 16.8108 56.8334 30.5862C56.8334 44.3615 45.2673 55.5287 31 55.5287C16.7327 55.5287 5.16669 44.3615 5.16669 30.5862ZM30.9998 15.6207C25.2928 15.6207 20.6665 20.0875 20.6665 25.5977C20.6665 31.1078 25.2928 35.5747 30.9998 35.5747C36.7066 35.5747 41.3331 31.1078 41.3331 25.5977C41.3331 20.0875 36.7066 15.6207 30.9998 15.6207ZM44.2047 40.5567C46.1624 41.7739 46.0668 44.4271 44.284 45.873C40.6919 48.7858 36.0584 50.5402 31.0003 50.5402C25.9757 50.5402 21.3697 48.809 17.7877 45.9304C15.9891 44.4849 15.8938 41.8183 17.8599 40.5931C18.472 40.2118 19.1385 39.8775 19.862 39.5897C22.7725 38.4311 26.49 38.069 31 38.069C35.5327 38.069 39.2713 38.4079 42.1895 39.554C42.9185 39.8404 43.5896 40.1744 44.2047 40.5567Z" fill="black"/>
</g>
<defs>
<clipPath id="clip0_31_26">
<rect width="62" height="59.8621" fill="white" transform="translate(0 0.655182)"/>
</clipPath>
</defs>
</svg>
