<svg width="26" height="26" viewBox="0 0 26 26" fill="none" xmlns="http://www.w3.org/2000/svg">
<g clip-path="url(#clip0_31_13)">
<path d="M0.0971768 14.4363V14.4354L0.0963135 14.4326L0.0971768 14.4363Z" fill="black"/>
<path d="M0.509186 15.3838L0.503092 15.3768C0.502686 15.3764 0.502686 15.3764 0.502686 15.3764L0.509186 15.3838Z" fill="black"/>
<path d="M0.509186 11.0043L0.503092 10.9973C0.502686 10.9973 0.502686 10.9973 0.502686 10.9973L0.509186 11.0043Z" fill="black"/>
<path d="M0.097187 10.0575C0.097187 10.0575 0.097187 10.0563 0.0967808 10.0555L0.0963745 10.0543L0.097187 10.0575Z" fill="black"/>
<path d="M26 10.0704C26.0004 9.95884 25.9779 9.85078 25.9416 9.74831C25.9771 9.65368 25.9959 9.55827 25.9963 9.46599C25.9972 9.32086 25.9555 9.18054 25.8922 9.06777L25.8902 9.06424C25.871 9.03036 25.8449 8.99447 25.8159 8.95858V6.24878C25.931 6.08909 25.9996 5.89709 26 5.69091C26 5.29191 25.751 4.9335 25.37 4.78253L15.9571 0.985342H15.9298C15.7321 0.918318 15.5272 0.878113 15.3193 0.878113C15.1164 0.878113 14.913 0.916356 14.7174 0.98137H14.6929L0.897152 6.3489L0.862824 6.36743L0.863637 6.36861C0.687629 6.45809 0.557375 6.58228 0.467543 6.70251C0.310375 6.91343 0.229938 7.13583 0.171488 7.33769L0.171082 7.34044C0.083332 7.65389 0.0465664 7.97204 0.0241211 8.24137L0.0237148 8.24372C0.00289453 8.51417 0.00167578 8.74285 5.07813e-05 8.83674V8.83909V8.8892C0.000457031 9.21761 0.0192461 9.64456 0.0968398 10.0554L0.0980586 10.0598C0.138938 10.2664 0.196473 10.4761 0.294531 10.6804L0.296156 10.6835L0.296512 10.6843C0.346379 10.7849 0.411277 10.8925 0.501109 10.995L0.503141 10.9974C0.509641 11.0049 0.519086 11.0116 0.526449 11.0187C0.50766 11.04 0.483133 11.0605 0.467594 11.0821C0.309969 11.2927 0.229988 11.5151 0.171539 11.7165L0.171133 11.7184V11.7192C0.0833828 12.0327 0.0466172 12.3512 0.0241719 12.6205L0.0237656 12.6225C0.00284375 12.8933 0.001625 13.1216 0 13.2159V13.2178V13.2683C0.00040625 13.5971 0.0191953 14.0241 0.0971953 14.4353L0.0980078 14.4385C0.138887 14.6455 0.196422 14.8556 0.29448 15.0598L0.296461 15.0634C0.345922 15.1632 0.41082 15.2708 0.501059 15.3744L0.50309 15.3768C0.519441 15.3958 0.543512 15.4127 0.562707 15.4316C0.53041 15.4659 0.493289 15.4998 0.467543 15.5341C0.309918 15.745 0.229938 15.9674 0.171488 16.1685L0.17027 16.174L0.171082 16.1716C0.083332 16.4851 0.0465664 16.8037 0.0241211 17.0729L0.0237148 17.0753C0.00289453 17.3457 0.00167578 17.5744 5.07813e-05 17.669V17.6714V17.7203C0.000457031 18.0495 0.0192461 18.4769 0.0972461 18.8881L0.0980586 18.8913C0.138938 19.0979 0.196473 19.308 0.294531 19.5118L0.296512 19.5158C0.345973 19.6159 0.410871 19.7232 0.501109 19.8269L0.494609 19.8197L0.503191 19.8296C0.589316 19.9262 0.707738 20.0196 0.855613 20.0894L0.853988 20.0918L0.856832 20.0933L0.877652 20.1048L11.0313 24.1507L11.0545 24.1602C11.2795 24.2489 11.5188 24.2942 11.7593 24.2942C11.9953 24.2942 12.2318 24.2505 12.4547 24.1625L25.45 19.0639V19.0635C25.5998 19.0052 25.7412 18.9101 25.8494 18.7576L25.8498 18.7579C25.8498 18.7579 25.8502 18.7568 25.8506 18.756C25.851 18.7556 25.8514 18.7556 25.8518 18.7548H25.8514C25.9539 18.605 25.9955 18.4473 25.9964 18.2975C25.9972 18.1523 25.9555 18.012 25.8923 17.8992L25.8903 17.8957V17.8961C25.8711 17.8622 25.8449 17.8259 25.8159 17.79V15.0806C25.9311 14.9209 25.9997 14.7282 26.0001 14.5224C26.0005 14.3978 25.9731 14.2767 25.927 14.1636C25.9735 14.0571 25.996 13.9487 25.9964 13.845C25.9972 13.6995 25.9555 13.56 25.8923 13.4464L25.8903 13.4428C25.8711 13.4093 25.8449 13.373 25.8159 13.3371V10.6281C25.9309 10.4682 25.9996 10.2758 26 10.0704ZM10.9826 23.0363L1.3128 19.1827L1.27644 19.1417C1.24622 19.0964 1.20748 19.01 1.1764 18.9028C1.12826 18.7423 1.09515 18.5333 1.07514 18.322C1.05513 18.1111 1.04818 17.8986 1.04818 17.7204V17.6782C1.0498 17.5406 1.05508 17.1424 1.11389 16.7678C1.14166 16.5809 1.18457 16.4007 1.23759 16.273L1.24866 16.2498L10.9825 20.0623V23.0363H10.9826ZM10.9826 18.5838L2.18385 15.0764L1.31285 14.7303L1.27649 14.6893C1.24627 14.6435 1.20753 14.5576 1.17645 14.4507C1.12831 14.2894 1.0952 14.0809 1.07519 13.8696C1.05518 13.6587 1.04823 13.4462 1.04823 13.2683V13.2257C1.04985 13.0878 1.05513 12.6899 1.11394 12.3149C1.14171 12.1284 1.18463 11.9479 1.23764 11.8205L1.24871 11.7973L10.9825 15.6098V18.5838H10.9826ZM10.9826 11.4728V11.6533V14.2047L2.09036 10.6598L1.31285 10.351L1.27649 10.3097C1.24627 10.2643 1.20753 10.178 1.17645 10.0716C1.12831 9.91065 1.0952 9.70212 1.07519 9.49036C1.05518 9.27904 1.04823 9.06694 1.04823 8.88915V8.84655C1.04985 8.70897 1.05513 8.31074 1.11394 7.93615C1.14171 7.74925 1.18463 7.56911 1.23764 7.44134L1.24871 7.41849L10.9825 11.2307V11.4728H10.9826ZM24.7676 18.24L12.0941 23.2114L12.0605 23.2259C11.9629 23.263 11.8613 23.2823 11.7592 23.2823C11.7229 23.2823 11.6857 23.2772 11.6498 23.2717V20.2606C11.6976 20.2658 11.747 20.2685 11.7948 20.2685C11.9855 20.2685 12.1766 20.2322 12.355 20.1613L12.3673 20.1562L24.7676 15.2696V18.24H24.7676ZM24.7676 13.7706V13.7872L12.0941 18.7589L12.0605 18.7731C11.9629 18.8106 11.8613 18.8295 11.7592 18.8295C11.7229 18.8295 11.6857 18.8244 11.6498 18.8196V15.8082C11.6976 15.8133 11.747 15.8161 11.7948 15.8161C11.9855 15.8161 12.1766 15.7798 12.355 15.7092L12.3673 15.7037L21.0647 12.2767L24.7676 10.8171V13.7706ZM24.7676 9.31812V9.40838L12.0941 14.3797L12.0605 14.3939C11.9629 14.4314 11.8613 14.4507 11.7592 14.4507C11.7229 14.4507 11.6857 14.4455 11.6498 14.4405V11.6877V11.4287C11.6976 11.4342 11.747 11.4365 11.7948 11.4365C11.9855 11.4365 12.1766 11.4007 12.355 11.3301L12.3673 11.325L24.7676 6.43804V9.31812H24.7676Z" fill="black"/>
<path d="M0.0971768 18.8891V18.8883L0.0963135 18.8858L0.0971768 18.8891Z" fill="black"/>
</g>
<defs>
<clipPath id="clip0_31_13">
<rect width="26" height="25.1034" fill="white" transform="translate(0 0.0344849)"/>
</clipPath>
</defs>
</svg>
